<?xml version="1.0" encoding="UTF-8"?>
<svg version="1.1" viewBox="0 0 2000 2000" width="1280" height="1280" xmlns="http://www.w3.org/2000/svg">
  <rect x="0" y="0" width="2000" height="2000" fill="#FFFFFF"/>
  <path transform="translate(911,778)" d="m0 0h24l17 3 20 6 21 9 3 2v173l-7-1-18-6-16-4-18-2h-32l-28 3-1-1v-41l1-131 10-5 15-4zm-4 24-14 3-1 4 3 6 18-1h19l14 2 26 7h6l1-3v-7l-22-7-23-4zm13 28-16 1-9 2-3 3 1 6 2 2 19-1h17l19 3 25 7h3l1-9-3-3-16-5-16-4-6-1zm-14 30-12 3-2 1 1 7 4 3 15-1h19l21 3 20 5h6l1-5-1-4-2-2-24-7-18-3zm12 29-17 1-7 2-2 2 1 7 5 2 12-1h23l19 3 23 6 4-2v-7l-5-3-16-5-19-4zm-10 29-11 2-5 3 1 6 2 3h10l11-1h9l24 3 22 5h7l1-1v-8l-6-3-18-5-23-4z" fill="#313131"/>
  <path transform="translate(1072,778)" d="m0 0h22l17 3 15 5 1 2v173l-31-3h-30l-23 3-24 7-7 3h-4v-173l5-3 19-8 19-6 10-2zm-3 24-18 3-25 7-3 2 2 7 1 2 9-1 18-5 17-3h23l15 1 2-5v-5l-8-2-7-1zm-4 29-15 3-24 7-2 2 1 9 5 1 19-6 15-3 8-1h21l16 1v-10l-4-2-6-1zm3 29-25 5-18 6-2 4 2 6h7l24-6 15-2h22l15 1 2-5v-5l-3-2-11-2zm-4 30-20 4-16 5-4 2v7l2 3 7-1 23-6 13-2h29l10 1 2-5-1-6-8-2zm8 28-19 3-17 4-12 4-1 3 2 7 4 1 25-6 24-3h10l11 1h9l1-1v-8l-4-3-13-2z" fill="#333"/>
  <path transform="translate(859,813)" d="m0 0h6l1 1 1 160 19-3 18-2h33l19 2 21 6 13 4h23l26-8 13-3 9-1h41l17 2 18 3 1-160 4-1 8 1 2 5v169l-2 2-4 1-118 1-1 9-4 6-5 4-7 2h-21l-7-3-5-4-2-7v-7l-122-1-2-2-1-5v-162l1-7z" fill="#353535"/>
  <path transform="translate(416,1197)" d="m0 0h35l15 4 10 6 6 7 4 9 1 4v10l-4 12-6 8-5 5-10 7 14 6 10 9 5 9 2 6v15l-5 12-7 9-8 6-8 4-16 4-10 1h-13l-46-2-1-4 6-4 11-3v-128l-11-2-5-3-1-5 2-1zm3 12-3 1-1 2v54l1 1h20l11-2 9-6 5-5 4-7 1-3v-16l-5-10-8-6-10-3zm-4 70v58l3 1 16 1 13-1 12-5 8-7 5-9 1-5v-11l-3-8-7-8-8-4-8-2z" fill="#131313"/>
  <path transform="translate(1534,1197)" d="m0 0h30l16 4 16 8 8 6 9 11 7 15 4 18v24l-3 16-6 15-9 12-8 8-13 8-14 5-17 3h-17l-29-2-18-1-1-2 5-5 13-3v-126l-15-5-3-3v-4l31-1zm-6 12-1 1-1 32v96h34l12-4 10-7 8-8 7-14 4-17 1-8v-16l-3-15-5-13-6-9-8-8-12-7-12-3z" fill="#131313"/>
  <path transform="translate(1448,1196)" d="m0 0h10l3 1-1 5-7 6-9 4-2 138h-10l-5-5-19-29-38-57-11-17-8-13-6-9v115l10 3 5 4 1 5-2 1h-37l-6-1 1-5 3-3 12-4v-124l-13-7-3-3 1-4h36l7 10 36 55 23 35 11 20v-104l-13-8-4-4 1-4z" fill="#121212"/>
  <path transform="translate(598,1194)" d="m0 0h231l2 4-2 3h-231l-1-1v-5z" fill="#2C2C2C"/>
  <path transform="translate(675,835)" d="m0 0 6 1 10 5 10 9 6 10 5 13 1 12-10-1-9-4-10-8-6-10-3-8-1-8v-10z" fill="#FDFDFD"/>
  <path transform="translate(707,1018)" d="m0 0h12l13 4 11 7 7 6 5 6-1 3-10 4-4 1h-9l-13-4-10-7-7-8-4-6 1-4z" fill="#323232"/>
  <path transform="translate(1278,1018)" d="m0 0h13l9 2 1 4-6 9-6 7-7 4-10 4-4 1h-10l-12-4-1-5 8-9 14-9z" fill="#2C2C2C"/>
  <path transform="translate(718,717)" d="m0 0 5 1 8 9 6 12 2 7v22l-3 9-5-2-7-5v-2h-2l-7-12-3-8v-13l3-11z" fill="#2D2D2D"/>
  <path transform="translate(670,897)" d="m0 0 7 1 12 4 12 8 8 10 6 12 1 7-5 1h-8l-9-3-10-6-7-8-5-10-1-8 4-3z" fill="#303030"/>
</svg>
